<svg width="50" height="38" viewBox="0 0 50 38" fill="none" xmlns="http://www.w3.org/2000/svg">
<path d="M42.3063 3.15793C39.1396 1.68581 35.7109 0.61734 32.1394 0C32.0766 0.000892068 32.0167 0.0264952 31.9727 0.0712321C31.5441 0.854779 31.0441 1.87576 30.7108 2.65931C26.9225 2.08982 23.0701 2.08982 19.2819 2.65931C18.9485 1.85202 18.4485 0.854779 17.9961 0.0712321C17.9723 0.0237444 17.9009 0 17.8295 0C14.2579 0.61734 10.8531 1.68581 7.66251 3.15793C7.6387 3.15793 7.61489 3.18168 7.59108 3.20542C1.11471 12.8692 -0.671056 22.2717 0.20992 31.5793C0.20992 31.6268 0.23373 31.6743 0.281351 31.698C4.56718 34.8322 8.68634 36.7317 12.7579 37.9902C12.8293 38.0139 12.9007 37.9902 12.9246 37.9427C13.877 36.6368 14.7341 35.2596 15.4722 33.8112C15.5199 33.7163 15.4722 33.6213 15.377 33.5975C14.0198 33.0752 12.7341 32.4578 11.4721 31.7455C11.3769 31.698 11.3769 31.5556 11.4483 31.4843C11.7102 31.2944 11.9721 31.0807 12.2341 30.8908C12.2817 30.8433 12.3531 30.8433 12.4007 30.867C20.5914 34.5948 29.425 34.5948 37.5205 30.867C37.5681 30.8433 37.6395 30.8433 37.6871 30.8908C37.9491 31.1044 38.211 31.2944 38.4729 31.5081C38.5681 31.5793 38.5681 31.7218 38.4491 31.7693C37.2109 32.5053 35.9014 33.0989 34.5442 33.6213C34.449 33.645 34.4251 33.7638 34.449 33.835C35.2109 35.2834 36.0681 36.6605 36.9966 37.9664C37.0681 37.9902 37.1395 38.0139 37.2109 37.9902C41.3063 36.7317 45.4254 34.8322 49.7113 31.698C49.7589 31.6743 49.7827 31.6268 49.7827 31.5793C50.8304 20.8234 48.0446 11.492 42.4016 3.20542C42.3777 3.18168 42.3539 3.15793 42.3063 3.15793ZM16.7104 25.9045C14.2579 25.9045 12.2102 23.6489 12.2102 20.8708C12.2102 18.0928 14.2103 15.8371 16.7104 15.8371C19.2343 15.8371 21.2343 18.1166 21.2105 20.8708C21.2105 23.6489 19.2104 25.9045 16.7104 25.9045ZM33.3061 25.9045C30.8536 25.9045 28.8059 23.6489 28.8059 20.8708C28.8059 18.0928 30.806 15.8371 33.3061 15.8371C35.8299 15.8371 37.83 18.1166 37.8062 20.8708C37.8062 23.6489 35.8299 25.9045 33.3061 25.9045Z" fill="#F1EFE2"/>
</svg>
