<svg width="50" height="22" viewBox="0 0 50 22" fill="none" xmlns="http://www.w3.org/2000/svg">
<path d="M24 2.74704V22H43.9091C48.1136 21.6921 50 18.9925 50 15.6771C50 12.1722 47.4545 9.35414 44.0455 9.35414C43.1818 9.35414 42.4545 9.5436 41.7045 9.87514C41.1591 4.33369 36.6364 0 31.0682 0C28.4091 0 25.8864 1.04198 24 2.74704ZM22 5.16254C21.3182 4.73628 20.5909 4.40474 19.7955 4.23897V22H22.9545V3.86006C22.6136 4.23897 22.2955 4.71259 22 5.16254ZM16.6591 3.88375V22H18.75V3.95479C18.3182 3.88375 17.8864 3.86006 17.4318 3.86006C17.1591 3.86006 16.9091 3.86007 16.6591 3.88375ZM12.5 5.42304V22H14.5682V4.33369C13.8182 4.59419 13.1136 4.97309 12.5 5.42304ZM8.70455 11.3434C8.56818 11.3434 8.43182 11.2013 8.27273 11.1302V22H10.3636V7.45963C9.52273 8.59634 8.95455 9.94618 8.70455 11.3434ZM4.06818 10.6803V21.7869C4.54545 21.929 5.09091 22 5.68182 22H6.18182V10.4909C6 10.4672 5.81818 10.4435 5.68182 10.4435C5.09091 10.4435 4.54545 10.5382 4.06818 10.6803ZM0 16.2217C0 17.9978 0.772727 19.5608 1.97727 20.6265V11.8407C0.772727 12.8827 0 14.4693 0 16.2217Z" fill="#F1EFE2"/>
</svg>
