<svg width="83" height="40" viewBox="0 0 83 40" fill="none" xmlns="http://www.w3.org/2000/svg">
<path d="M1 22.3171C1 22.3171 5.33929 22.3171 7.87054 22.3171C10.4018 22.3171 9.87886 20.9428 11.4866 20.8606C14.1835 20.7228 15.4643 24.1707 16.7299 24.1707C17.9955 24.1707 21.25 19.007 22.5156 18.8746C23.7812 18.7422 26.3125 26.4216 27.9397 26.2892C29.567 26.1568 31.5558 17.1533 33.7254 17.2857C35.8951 17.4181 37.5223 30.9233 39.1496 30.9233C40.7768 30.9233 43.1272 8.67944 44.9353 8.67944C46.7433 8.67944 48.5513 39 50.3594 39C52.1674 39 54.3371 1.00001 55.9643 1C57.5915 0.999986 59.942 28.6725 61.3884 28.6725C62.8348 28.6725 64.4621 18.2125 66.2701 18.2125C68.0781 18.2125 69.8862 24.1707 72.0558 24.1707C74.2254 24.1707 74.9487 22.3171 76.2143 22.3171C77.4799 22.3171 82 22.3171 82 22.3171" stroke="#F1EFE2" stroke-width="2" stroke-linecap="round"/>
</svg>
