<svg width="50" height="34" viewBox="0 0 50 34" fill="none" xmlns="http://www.w3.org/2000/svg">
<path d="M20 24.2857L32.975 17L20 9.71429V24.2857ZM48.9 5.27C49.225 6.41143 49.45 7.94143 49.6 9.88428C49.775 11.8271 49.85 13.5029 49.85 14.96L50 17C50 22.3186 49.6 26.2286 48.9 28.73C48.275 30.9157 46.825 32.3243 44.575 32.9314C43.4 33.2471 41.25 33.4657 37.95 33.6114C34.7 33.7814 31.725 33.8543 28.975 33.8543L25 34C14.525 34 8 33.6114 5.425 32.9314C3.175 32.3243 1.725 30.9157 1.1 28.73C0.775 27.5886 0.55 26.0586 0.4 24.1157C0.225 22.1729 0.15 20.4971 0.15 19.04L0 17C0 11.6814 0.4 7.77143 1.1 5.27C1.725 3.08429 3.175 1.67571 5.425 1.06857C6.6 0.752857 8.75 0.534285 12.05 0.388571C15.3 0.218571 18.275 0.145714 21.025 0.145714L25 0C35.475 0 42 0.388572 44.575 1.06857C46.825 1.67571 48.275 3.08429 48.9 5.27Z" fill="#F1EFE2"/>
</svg>
